<svg xmlns="http://www.w3.org/2000/svg" viewBox="0 0 32 32">
  <rect width="32" height="32" rx="6" fill="#0f0f17"/>
  <!-- J (azul) -->
  <rect x="2.5" y="2.5" width="6" height="6" rx="1" fill="#5c9dff"/>
  <rect x="9.5" y="2.5" width="6" height="6" rx="1" fill="#5c9dff"/>
  <rect x="16.5" y="2.5" width="6" height="6" rx="1" fill="#5c9dff"/>
  <rect x="16.5" y="9.5" width="6" height="6" rx="1" fill="#5c9dff"/>
  <!-- L (naranja) -->
  <rect x="23.5" y="2.5" width="6" height="6" rx="1" fill="#ffb74d"/>
  <rect x="23.5" y="9.5" width="6" height="6" rx="1" fill="#ffb74d"/>
  <rect x="23.5" y="16.5" width="6" height="6" rx="1" fill="#ffb74d"/>
  <rect x="16.5" y="16.5" width="6" height="6" rx="1" fill="#ffb74d"/>
  <!-- O (amarillo) -->
  <rect x="2.5" y="9.5" width="6" height="6" rx="1" fill="#ffd54f"/>
  <rect x="9.5" y="9.5" width="6" height="6" rx="1" fill="#ffd54f"/>
  <rect x="2.5" y="16.5" width="6" height="6" rx="1" fill="#ffd54f"/>
  <rect x="9.5" y="16.5" width="6" height="6" rx="1" fill="#ffd54f"/>
  <!-- I (cian) -->
  <rect x="2.5" y="23.5" width="6" height="6" rx="1" fill="#4dd0e1"/>
  <rect x="9.5" y="23.5" width="6" height="6" rx="1" fill="#4dd0e1"/>
  <rect x="16.5" y="23.5" width="6" height="6" rx="1" fill="#4dd0e1"/>
  <rect x="23.5" y="23.5" width="6" height="6" rx="1" fill="#4dd0e1"/>
</svg>
